<?xml version="1.0" encoding="UTF-8"?>
<svg id="Capa_1" xmlns="http://www.w3.org/2000/svg" version="1.1" viewBox="0 0 24 24">
  <!-- Generator: Adobe Illustrator 29.2.1, SVG Export Plug-In . SVG Version: 2.1.0 Build 116)  -->
  <defs>
    <style>
      .st0 {
        fill: #fff;
      }
    </style>
  </defs>
  <path class="st0" d="M16,21h-8c-1.7,0-3-1.3-3-3V8h-1c-.6,0-1-.4-1-1s.4-1,1-1h4.1c.4-1.7,2-3,3.9-3s3.4,1.3,3.9,3h4.1c.6,0,1,.4,1,1s-.4,1-1,1h-1v10c0,1.7-1.3,3-3,3ZM7,8v10c0,.6.4,1,1,1h8c.6,0,1-.4,1-1V8H7ZM10.3,6h3.5c-.3-.6-1-1-1.7-1s-1.4.4-1.7,1Z"/>
</svg>